<?xml version="1.0" encoding="UTF-8"?>
<svg xmlns="http://www.w3.org/2000/svg" viewBox="0 0 199.34 199.34">
  <!-- Gold disc: public domain, OpenClipArt "Gaius Marius Coin" by bofh_stein, 2011. https://openclipart.org/detail/132733/gaius-marius-coin -->
  <!-- Crown: public domain, Wikimedia Commons "King's Crown.svg" (Tudor Crown). https://commons.wikimedia.org/wiki/File:King%27s_Crown.svg -->
  <g transform="translate(-433.67 -348.68)">
    <path d="m635.39 444.76c0 62.763-50.879 113.64-113.64 113.64-62.763 0-113.64-50.879-113.64-113.64 0-62.763 50.879-113.64 113.64-113.64 62.763 0 113.64 50.879 113.64 113.64z" transform="matrix(.87175 0 0 .87175 78.51 60.636)" fill="#efd920" stroke="#000" stroke-width="1.3765"/>
  </g>
  <svg x="36" y="22" width="128" height="134" viewBox="0 0 238.24 249.4">
    <g id="b"><path id="c" d="M120.92,196.13l52.84,5.67,21.51-5.67,16.61-31.73-4.53-15.86s1.9-5.47,1.89-8.31c-.02-4.92-.57-10.33-3.4-14.35-2.25-3.2-7.08-7.09-10.88-8.02-10.86-2.64-19.08,1.8-28.37,8.02,0,0-6.68-4.14-14.87-7.38-2.81-1.11-7.43-2.12-9.67-2.81-5.97-1.85-20.38-3.02-20.38-3.02h-5.11s-14.41,1.17-20.38,3.02c-2.24,.69-6.85,1.7-9.67,2.81-8.19,3.24-14.87,7.38-14.87,7.38-9.3-6.22-17.52-10.66-28.37-8.02-3.8,.92-8.63,4.82-10.88,8.02-2.82,4.02-3.37,9.44-3.4,14.35-.01,2.84,1.89,8.31,1.89,8.31l-4.53,15.86,16.61,31.73,21.51,5.67,52.84-5.67h3.6Z" fill="#ce1126"/><path id="d" d="M107.8,121.21l-.28-.28s-14.63,1.64-20.56,4.4c-6.98,3.25-11.06,6.76-17.44,11.07-3.77,2.54-8.35,5.98-12.76,7.1-3.12,.79-7.44,.32-10.49-.71-2.46-.83-4.44-2.57-5.96-4.68-1.43-1.98-1.97-4.37-1.99-6.81-.02-2.97,.35-4.53,1.84-7.1,1.8-3.09,8.12-6.91,11.77-6.67h0l2.13,.14,5.39,1.42,12.05,6.67,8.37-3.83,6.95-3.69,9.22-2.7,11.2-1.42h23.77l11.2,1.42,9.22,2.7,6.95,3.69,8.37,3.83,12.05-6.67,5.39-1.42,2.13-.14h0c3.65-.24,9.97,3.58,11.77,6.67,1.49,2.57,1.86,4.12,1.84,7.1-.02,2.44-.56,4.83-1.99,6.81-1.52,2.11-3.5,3.85-5.96,4.68-3.05,1.03-7.37,1.5-10.49,.71-4.41-1.12-8.99-4.55-12.76-7.1-6.38-4.31-10.46-7.82-17.44-11.07-5.94-2.76-20.56-4.4-20.56-4.4l-.28,.28h-22.64Z" fill="#de4f40"/><path id="e" d="M52.69,124.42c-2.11,.1-4.41,.55-5.59,1.46-3.22,2.49-4.43,6.01-.57,9.79,2.33,2.28,6.76,1.88,10.07,1.3,2.8-.49,5.72-2.2,7.94-3.97l8.51-6.83-7.08,2.32-2.22-.22c-2.36-.24-4.87-3.1-7.72-3.66-.88-.17-2.07-.25-3.34-.19Zm131.63,0c-.8,.02-1.54,.08-2.13,.19-2.85,.56-5.36,3.42-7.72,3.66l-2.22,.22-7.08-2.32,8.51,6.83c2.22,1.78,5.14,3.48,7.94,3.97,3.31,.58,7.74,.98,10.07-1.3,3.86-3.78,2.65-7.3-.57-9.79-1.42-1.1-4.4-1.51-6.8-1.46Z" fill="#ba1b24"/><path id="f" d="M113.84,187.8l-34.44,8.76-34.44-.29-14.3-28.91-1.11-24.55c6.71,9.13,11.73,14.72,32.12,12.69,8.4-1.13,23.4-11.2,31.11-14.73,8.41-3.85,21.64-7.42,21.64-7.42h9.39s13.23,3.57,21.64,7.42c7.7,3.53,22.71,13.6,31.11,14.73,20.39,2.03,25.41-3.56,32.12-12.69l-1.11,24.55-14.3,28.91-34.44,.29-34.44-8.76h-10.55Z" fill="#c31525"/><path id="g" d="M113.55,188.09l-38.23,9.64-29.77-.88-14.59-28.04-1.17-4.67s18.64,12.81,27.57,14.27c10.54,1.73,18.94-.19,29.22-3.09,11.44-3.23,32.53-18.19,32.53-18.19,0,0,21.09,14.97,32.53,18.19,10.28,2.9,18.68,4.82,29.22,3.09,8.93-1.47,27.57-14.27,27.57-14.27l-1.17,4.67-14.59,28.04-29.77,.88-38.23-9.64" fill="#aa1921"/><path id="h" d="M117.32,196.13l-52.84,5.67-21.51-5.67-16.61-31.73,4.53-15.86s-1.9-5.47-1.89-8.31c.02-4.92,.57-10.33,3.4-14.35,2.25-3.2,7.08-7.09,10.88-8.02,10.86-2.64,19.08,1.8,28.37,8.02,0,0,6.68-4.14,14.87-7.38,2.81-1.11,7.43-2.12,9.67-2.81,5.97-1.85,20.38-3.02,20.38-3.02h5.11s14.41,1.17,20.38,3.02c2.24,.69,6.85,1.7,9.67,2.81,8.19,3.24,14.87,7.38,14.87,7.38,9.3-6.22,17.52-10.66,28.37-8.02,3.8,.92,8.63,4.82,10.88,8.02,2.82,4.02,3.37,9.44,3.4,14.35,.01,2.84-1.89,8.31-1.89,8.31l4.53,15.86-16.61,31.73-21.51,5.67-52.84-5.67h-3.6Z" fill="none" stroke="#1a1a1a" stroke-miterlimit="4.07" stroke-width="1.17"/></g><g id="i"><g id="j"><g id="k"><path id="l" d="M124.15,60.15c-19.76-1.02-44.8,5.7-66.03,20.59-21.23,14.89-38.52,38.56-40.18,70.49l13.2,.69c1.44-27.58,15.89-47.25,34.57-60.35,18.68-13.1,41.72-19.04,57.77-18.21l.68-13.21h0Z" fill="#f3d328" fill-rule="evenodd"/><path id="m" d="M24.53,151.58l6.6,.34c1.44-27.58,15.89-47.25,34.57-60.35,18.68-13.1,41.72-19.04,57.77-18.21l.34-6.6c-31.58,.28-91.26,19.55-99.28,84.83Z" fill="#eac102" fill-rule="evenodd"/><path id="n" d="M124.15,60.15c-19.76-1.02-44.8,5.7-66.03,20.59-21.23,14.89-38.52,38.56-40.18,70.49l13.2,.69c1.44-27.58,15.89-47.25,34.57-60.35,18.68-13.1,41.72-19.04,57.77-18.21l.68-13.21h0Z" fill="none" stroke="#000" stroke-miterlimit="4.07" stroke-width="1.17"/></g><g id="o"><ellipse id="p" cx="9.89" cy="138.01" rx="9.66" ry="9.67" fill="#ccc"/><ellipse id="q" cx="9.23" cy="136.74" rx="7.3" ry="7.5" transform="translate(-127.79 139.51) rotate(-87.3)" fill="#e6e6e6"/><ellipse id="r" cx="7.98" cy="135.41" rx="5.57" ry="5.54" transform="translate(-127.63 138.07) rotate(-87.75)" fill="#fff"/><ellipse id="s" cx="9.89" cy="138.01" rx="9.66" ry="9.67" fill="none" stroke="#1a1a1a" stroke-width=".45"/></g><g id="t"><ellipse id="u" cx="15.15" cy="119.24" rx="9.66" ry="9.67" fill="#ccc"/><ellipse id="v" cx="14.5" cy="117.97" rx="7.3" ry="7.5" transform="translate(-104.02 126.89) rotate(-87.3)" fill="#e6e6e6"/><ellipse id="w" cx="13.25" cy="116.63" rx="5.57" ry="5.54" transform="translate(-103.81 125.3) rotate(-87.75)" fill="#fff"/><ellipse id="x" cx="15.15" cy="119.24" rx="9.66" ry="9.67" fill="none" stroke="#1a1a1a" stroke-width=".45"/></g><g id="y"><ellipse id="z" cx="24.19" cy="102.29" rx="9.66" ry="9.67" fill="#ccc"/><ellipse id="aa" cx="23.54" cy="101.02" rx="7.3" ry="7.5" transform="translate(-78.48 119.77) rotate(-87.3)" fill="#e6e6e6"/><ellipse id="ab" cx="22.29" cy="99.69" rx="5.57" ry="5.54" transform="translate(-78.19 118.05) rotate(-87.75)" fill="#fff"/><ellipse id="ac" cx="24.19" cy="102.29" rx="9.66" ry="9.67" fill="none" stroke="#1a1a1a" stroke-width=".45"/></g><g id="ad"><ellipse id="ae" cx="36.19" cy="86.86" rx="9.66" ry="9.67" fill="#ccc"/><ellipse id="af" cx="35.54" cy="85.59" rx="7.3" ry="7.5" transform="translate(-51.63 117.05) rotate(-87.3)" fill="#e6e6e6"/><ellipse id="ag" cx="34.29" cy="84.25" rx="5.57" ry="5.54" transform="translate(-51.24 115.21) rotate(-87.75)" fill="#fff"/><ellipse id="ah" cx="36.19" cy="86.86" rx="9.66" ry="9.67" fill="none" stroke="#1a1a1a" stroke-width=".45"/></g><g id="ai"><ellipse id="aj" cx="50.83" cy="74.03" rx="9.66" ry="9.67" fill="#ccc"/><ellipse id="ak" cx="50.17" cy="72.76" rx="7.3" ry="7.5" transform="translate(-24.87 119.44) rotate(-87.3)" fill="#e6e6e6"/><ellipse id="al" cx="48.93" cy="71.42" rx="5.57" ry="5.54" transform="translate(-24.36 117.51) rotate(-87.75)" fill="#fff"/><ellipse id="am" cx="50.83" cy="74.03" rx="9.66" ry="9.67" fill="none" stroke="#1a1a1a" stroke-width=".45"/></g><g id="an"><ellipse id="ao" cx="67.55" cy="63.77" rx="9.66" ry="9.67" fill="#ccc"/><ellipse id="ap" cx="66.89" cy="62.5" rx="7.3" ry="7.5" transform="translate(1.31 126.37) rotate(-87.3)" fill="#e6e6e6"/><ellipse id="aq" cx="65.65" cy="61.17" rx="5.57" ry="5.54" transform="translate(1.95 124.36) rotate(-87.75)" fill="#fff"/><ellipse id="ar" cx="67.55" cy="63.77" rx="9.66" ry="9.67" fill="none" stroke="#1a1a1a" stroke-width=".45"/></g><g id="as"><ellipse id="at" cx="85.52" cy="56.33" rx="9.66" ry="9.67" fill="#ccc"/><ellipse id="au" cx="84.86" cy="55.06" rx="7.3" ry="7.5" transform="translate(25.86 137.23) rotate(-87.3)" fill="#e6e6e6"/><ellipse id="av" cx="83.61" cy="53.73" rx="5.57" ry="5.54" transform="translate(26.65 135.17) rotate(-87.75)" fill="#fff"/><ellipse id="aw" cx="85.52" cy="56.33" rx="9.66" ry="9.67" fill="none" stroke="#1a1a1a" stroke-width=".45"/></g></g><g id="ax"><g id="ay"><path id="az" d="M114.09,60.15c19.76-1.02,44.8,5.7,66.03,20.59,21.23,14.89,38.52,38.56,40.18,70.49l-13.2,.69c-1.44-27.58-15.89-47.25-34.57-60.35-18.68-13.1-41.72-19.04-57.77-18.21l-.68-13.21h0Z" fill="#f3d328" fill-rule="evenodd"/><path id="ba" d="M213.71,151.58l-6.6,.34c-1.44-27.58-15.89-47.25-34.57-60.35-18.68-13.1-41.72-19.04-57.77-18.21l-.34-6.6c31.58,.28,91.26,19.55,99.28,84.83Z" fill="#eac102" fill-rule="evenodd"/><path id="bb" d="M114.09,60.15c19.76-1.02,44.8,5.7,66.03,20.59,21.23,14.89,38.52,38.56,40.18,70.49l-13.2,.69c-1.44-27.58-15.89-47.25-34.57-60.35-18.68-13.1-41.72-19.04-57.77-18.21l-.68-13.21h0Z" fill="none" stroke="#000" stroke-miterlimit="4.07" stroke-width="1.17"/></g><g id="bc"><ellipse id="bd" cx="228.36" cy="138.01" rx="9.66" ry="9.67" fill="#ccc"/><ellipse id="be" cx="229.01" cy="136.74" rx="7.5" ry="7.3" transform="translate(-6.2 10.95) rotate(-2.7)" fill="#e6e6e6"/><ellipse id="bf" cx="230.26" cy="135.41" rx="5.54" ry="5.57" transform="translate(-5.14 9.14) rotate(-2.25)" fill="#fff"/><ellipse id="bg" cx="228.36" cy="138.01" rx="9.66" ry="9.67" fill="none" stroke="#1a1a1a" stroke-width=".45"/></g><g id="bh"><ellipse id="bi" cx="223.09" cy="119.24" rx="9.66" ry="9.67" fill="#ccc"/><ellipse id="bj" cx="223.74" cy="117.97" rx="7.5" ry="7.3" transform="translate(-5.32 10.69) rotate(-2.7)" fill="#e6e6e6"/><ellipse id="bk" cx="224.99" cy="116.63" rx="5.54" ry="5.57" transform="translate(-4.4 8.92) rotate(-2.25)" fill="#fff"/><ellipse id="bl" cx="223.09" cy="119.24" rx="9.66" ry="9.67" fill="none" stroke="#1a1a1a" stroke-width=".45"/></g><g id="bm"><ellipse id="bn" cx="214.05" cy="102.29" rx="9.66" ry="9.67" fill="#ccc"/><ellipse id="bo" cx="214.7" cy="101.02" rx="7.5" ry="7.3" transform="translate(-4.53 10.24) rotate(-2.7)" fill="#e6e6e6"/><ellipse id="bp" cx="215.95" cy="99.69" rx="5.54" ry="5.57" transform="translate(-3.75 8.55) rotate(-2.25)" fill="#fff"/><ellipse id="bq" cx="214.05" cy="102.29" rx="9.66" ry="9.67" fill="none" stroke="#1a1a1a" stroke-width=".45"/></g><g id="br"><ellipse id="bs" cx="202.05" cy="86.86" rx="9.66" ry="9.67" fill="#ccc"/><ellipse id="bt" cx="202.7" cy="85.59" rx="7.5" ry="7.3" transform="translate(-3.81 9.66) rotate(-2.7)" fill="#e6e6e6"/><ellipse id="bu" cx="203.95" cy="84.25" rx="5.54" ry="5.57" transform="translate(-3.15 8.07) rotate(-2.25)" fill="#fff"/><ellipse id="bv" cx="202.05" cy="86.86" rx="9.66" ry="9.67" fill="none" stroke="#1a1a1a" stroke-width=".45"/></g><g id="bw"><ellipse id="bx" cx="187.41" cy="74.03" rx="9.66" ry="9.67" fill="#ccc"/><ellipse id="by" cx="188.07" cy="72.76" rx="7.5" ry="7.3" transform="translate(-3.22 8.95) rotate(-2.7)" fill="#e6e6e6"/><ellipse id="bz" cx="189.32" cy="71.42" rx="5.54" ry="5.57" transform="translate(-2.66 7.49) rotate(-2.25)" fill="#fff"/><ellipse id="ca" cx="187.41" cy="74.03" rx="9.66" ry="9.67" fill="none" stroke="#1a1a1a" stroke-width=".45"/></g><g id="cb"><ellipse id="cc" cx="170.69" cy="63.77" rx="9.66" ry="9.67" fill="#ccc"/><ellipse id="cd" cx="171.35" cy="62.5" rx="7.5" ry="7.3" transform="translate(-2.76 8.15) rotate(-2.7)" fill="#e6e6e6"/><ellipse id="ce" cx="172.6" cy="61.17" rx="5.54" ry="5.57" transform="translate(-2.27 6.82) rotate(-2.25)" fill="#fff"/><ellipse id="cf" cx="170.69" cy="63.77" rx="9.66" ry="9.67" fill="none" stroke="#1a1a1a" stroke-width=".45"/></g><g id="cg"><ellipse id="ch" cx="152.73" cy="56.33" rx="9.66" ry="9.67" fill="#ccc"/><ellipse id="ci" cx="153.38" cy="55.06" rx="7.5" ry="7.3" transform="translate(-2.43 7.3) rotate(-2.7)" fill="#e6e6e6"/><ellipse id="cj" cx="154.63" cy="53.73" rx="5.54" ry="5.57" transform="translate(-1.99 6.11) rotate(-2.25)" fill="#fff"/><ellipse id="ck" cx="152.73" cy="56.33" rx="9.66" ry="9.67" fill="none" stroke="#1a1a1a" stroke-width=".45"/></g></g></g><g id="cl"><path id="cm" d="M134.64,61.34l7.84,2.16c-3.93,14.25-9.03,44.63-10.28,69.61l-13.08,1.7-13.08-1.7c-1.24-24.97-6.35-55.36-10.28-69.61l7.84-2.16h31.04Z" fill="#f3d328" fill-rule="evenodd" stroke="#000" stroke-miterlimit="4.2" stroke-width="1.17"/><g id="cn"><path id="co" d="M115.43,14.58c-1.17-5.51-6.12-9.8-10.94-14.14,9.81,1.06,19.61,.74,29.42,0-4.43,4.52-10.76,8.51-11.2,14.14,5.71-2.48,9.39-7.49,13.79-11.62-1.04,8.3-.32,16.59,0,24.89-4.37-3.51-8.09-7.96-13.79-9.53,1.69,5.15,5.86,9.1,11.31,12.44h-29.86c4.94-3.46,9.42-7.22,11.27-12.44-5.42,1.75-9.32,6.28-13.68,9.98,.77-8.37,.68-16.74,0-25.11,4.19,4.56,8.11,9.71,13.68,11.39h0Z" fill="#f3d328" stroke="#1a1a1a" stroke-width=".67"/><g id="cp"><ellipse id="cq" cx="119.12" cy="15.61" rx="6.51" ry="6.51" fill="#ccc"/><ellipse id="cr" cx="118.64" cy="14.77" rx="5.05" ry="4.92" fill="#e6e6e6"/><ellipse id="cs" cx="117.76" cy="13.91" rx="3.74" ry="3.75" fill="#fff"/><ellipse id="ct" cx="119.12" cy="15.61" rx="6.51" ry="6.51" fill="none" stroke="#1a1a1a" stroke-width=".67"/></g><g id="cu"><g id="cv"><ellipse id="cw" cx="119.12" cy="48.86" rx="17.68" ry="17.69" fill="#f3d328" stroke="#1a1a1a" stroke-width=".68"/><ellipse id="cx" cx="116.01" cy="43.67" rx="10.11" ry="9.82" fill="#f7e272"/></g><path id="cy" d="M118.4,29.37c-1.63,0-2.94,1.31-2.94,2.94v11.74h-11.79c-1.63,0-2.99,1.31-2.99,2.94v1.31c0,1.63,1.36,2.94,2.99,2.94h30.93c1.63,0,2.94-1.31,2.94-2.94v-1.31c0-1.63-1.31-2.94-2.94-2.94h-11.79v-11.74c0-1.63-1.31-2.94-2.94-2.94h-1.49Z" fill="#f4d30d"/><path id="cz" d="M119.22,29.25l-3.37,1.09-.3,13.93-12.26-.14-2.45,2.58v.92l17.61-.14,.76-18.25Zm3.53,14.55l-.46,.79,.03,3.16,15.14,.05v-1.69l-2.47-2.15-12.23-.16Z" fill="#f7e272"/><path id="da" d="M118.4,29.37c-1.63,0-2.94,1.31-2.94,2.94v11.74h-11.79c-1.63,0-2.99,1.31-2.99,2.94v1.31c0,1.63,1.36,2.94,2.99,2.94h30.93c1.63,0,2.94-1.31,2.94-2.94v-1.31c0-1.63-1.31-2.94-2.94-2.94h-11.79v-11.74c0-1.63-1.31-2.94-2.94-2.94h-1.49Z" fill="none" stroke="#1a1a1a" stroke-width=".67"/></g></g><g id="db"><ellipse id="dc" cx="119.12" cy="71.27" rx="9.66" ry="9.67" fill="#ccc"/><ellipse id="dd" cx="118.41" cy="70.03" rx="7.5" ry="7.3" fill="#e6e6e6"/><ellipse id="de" cx="117.1" cy="68.76" rx="5.54" ry="5.57" fill="#fff"/><ellipse id="df" cx="119.12" cy="71.27" rx="9.66" ry="9.67" fill="none" stroke="#1a1a1a" stroke-width=".45"/></g><g id="dg"><ellipse id="dh" cx="119.12" cy="83.88" rx="9.66" ry="9.67" fill="#ccc"/><ellipse id="di" cx="118.41" cy="82.64" rx="7.5" ry="7.3" fill="#e6e6e6"/><ellipse id="dj" cx="117.1" cy="81.37" rx="5.54" ry="5.57" fill="#fff"/><ellipse id="dk" cx="119.12" cy="83.88" rx="9.66" ry="9.67" fill="none" stroke="#1a1a1a" stroke-width=".45"/></g><g id="dl"><g id="dm"><g id="dn"><ellipse id="do" cx="119.12" cy="97.5" rx="9.66" ry="9.67" fill="#ccc"/><ellipse id="dp" cx="118.41" cy="96.26" rx="7.5" ry="7.3" fill="#e6e6e6"/><ellipse id="dq" cx="117.1" cy="94.99" rx="5.54" ry="5.57" fill="#fff"/><ellipse id="dr" cx="119.12" cy="97.5" rx="9.66" ry="9.67" fill="none" stroke="#1a1a1a" stroke-width=".45"/></g><g id="ds"><ellipse id="dt" cx="119.12" cy="110.33" rx="9.66" ry="9.67" fill="#ccc"/><ellipse id="du" cx="118.41" cy="109.09" rx="7.5" ry="7.3" fill="#e6e6e6"/><ellipse id="dv" cx="117.1" cy="107.81" rx="5.54" ry="5.57" fill="#fff"/><ellipse id="dw" cx="119.12" cy="110.33" rx="9.66" ry="9.67" fill="none" stroke="#1a1a1a" stroke-width=".45"/></g><g id="dx"><ellipse id="dy" cx="119.12" cy="124.31" rx="9.66" ry="9.67" fill="#ccc"/><ellipse id="dz" cx="118.41" cy="123.07" rx="7.5" ry="7.3" fill="#e6e6e6"/><ellipse id="ea" cx="117.1" cy="121.8" rx="5.54" ry="5.57" fill="#fff"/><ellipse id="eb" cx="119.12" cy="124.31" rx="9.66" ry="9.67" fill="none" stroke="#1a1a1a" stroke-width=".45"/></g></g></g><path id="ec" d="M97.75,62.67l-6.07,1.68c3.79,13.74,11.04,43.73,12.27,68.41l6.29,3.89c-1.26-25.27-8.42-59.22-12.49-73.98Zm42.75,0c-4.07,14.76-11.23,48.72-12.49,73.98l6.29-3.89c1.23-24.68,8.48-54.67,12.27-68.41l-6.07-1.68Z" fill="#f3d328" fill-rule="evenodd" stroke="#000" stroke-miterlimit="4.2" stroke-width="1.17"/></g><g id="ed"><path id="ee" d="M43.85,221.59s-9.98-32.63-17.14-48.05c-3.49-7.51-10.71-21.47-10.71-21.47l14.67-8.47,7.55-1.06c-3.71,9.9-3.45,16.82-3.53,24,7.77-1.34,11.35-7.25,15.52-11.29l4.94,20.82c-7.78-3.46-12.97-1.73-17.98,.35,0,0,3.21,6.29,5.64,8.47,2.78,2.5,5.84,3.93,9.52,4.59,3.48,.62,7.4,.84,10.58-.71,6.7-3.25,10.11-10.35,9.17-9.88,0,0,.67-6.23-1.06-8.47-1.29-1.68-3.95-3.04-5.99-2.47-3.22,.9-4.94,8.12-4.94,8.12,0,0-3.09-6.14-3.88-9.53-.69-2.98-1.72-6.44-.35-9.18,1.02-2.04,3.4-3.47,5.64-3.88,2.97-.55,8.46,2.12,8.46,2.12,0,0-1.64-5.53-2.12-8.47-.24-1.51,.12-3.53,.71-4.94,1.34-3.23,5.29-6,4.82-6.02-.47-.02,4.04,1.69,6.13,4.49,.91,1.23,1.76,3.09,1.9,4.62,.26,2.96,.03,8.73,.03,8.73,0,0,4.67-3.94,7.68-4.13,2.28-.15,4.93,.65,6.42,2.37,2,2.31,1.85,5.92,1.91,8.98,.07,3.48-1.42,10.19-1.42,10.19,0,0-3.44-6.57-6.78-6.65-2.12-.05-4.36,1.92-5.2,3.87-1.13,2.6,1.06,8.47,1.06,8.47,13.2,10.31,26.85-.26,29.65-10.57v-3.88c-5.52,.76-7.88,1.73-13.4,8.12l-1.76-25.76c5.29,4.79,9.87,6.51,15.16,5.65-.5-7.49-4.25-10.82-10.35-17.37l5.99-1.76h17.94l5.99,1.76c-6.11,6.55-10.31,9.88-10.81,17.37,5.29,.86,9.87-.86,15.16-5.65l-1.76,25.76c-5.52-6.38-7.88-7.36-13.4-8.12v3.88c2.8,10.3,16.45,20.88,29.65,10.57,0,0,2.18-5.87,1.06-8.47-.84-1.95-3.09-3.92-5.2-3.87-3.34,.08-6.78,6.65-6.78,6.65,0,0-1.49-6.72-1.42-10.19,.06-3.06-.09-6.67,1.91-8.98,1.49-1.73,4.15-2.52,6.42-2.37,3.02,.2,7.68,4.13,7.68,4.13,0,0-.23-5.77,.03-8.73,.13-1.52,.98-3.39,1.9-4.62,2.09-2.8,6.6-4.51,6.13-4.49-.47,.02,3.48,2.79,4.82,6.02,.58,1.41,.95,3.43,.71,4.94-.48,2.94-2.12,8.47-2.12,8.47,0,0,5.49-2.67,8.46-2.12,2.24,.42,4.62,1.84,5.64,3.88,1.37,2.74,.34,6.19-.35,9.18-.79,3.39-3.88,9.53-3.88,9.53,0,0-1.72-7.22-4.94-8.12-2.04-.57-4.7,.79-5.99,2.47-1.73,2.24-1.06,8.47-1.06,8.47-.94-.47,2.47,6.63,9.17,9.88,3.18,1.55,7.1,1.33,10.58,.71,3.68-.66,6.74-2.09,9.52-4.59,2.43-2.18,5.64-8.47,5.64-8.47-5.01-2.08-10.2-3.81-17.98-.35l4.94-20.82c4.17,4.04,7.74,9.95,15.52,11.29-.07-7.17,.18-14.1-3.53-24l6.85,1.26,15.37,8.26s-7.23,13.96-10.71,21.47c-7.16,15.42-17.14,48.05-17.14,48.05l-.31,.88c-51.09-11.44-101.02-10.11-150.23-.88h0Z" fill="#f3d328"/><path id="ef" d="M58.4,219.1c-4.86,.75-9.71,1.58-14.55,2.49,0,0-9.98-32.63-17.14-48.05-3.49-7.51-10.71-21.47-10.71-21.47l14.67-8.47,7.55-1.06c-3.71,9.9-3.45,16.82-3.53,24,7.77-1.34,11.35-7.25,15.52-11.29l4.94,20.82c-7.78-3.46-12.97-1.73-17.98,.35,0,0,3.21,6.29,5.64,8.47,2.78,2.5,5.84,3.93,9.52,4.59l6.09,29.62h0Zm127.52-29.62c3.68-.66,6.74-2.09,9.52-4.59,2.43-2.18,5.64-8.47,5.64-8.47-5.01-2.08-10.2-3.81-17.98-.35l4.94-20.82c4.17,4.04,7.74,9.95,15.52,11.29-.07-7.17,.18-14.1-3.53-24l6.85,1.26,15.37,8.26s-7.23,13.96-10.71,21.47c-7.16,15.42-17.14,48.05-17.14,48.05l-.31,.88c-4.98-1.12-9.95-2.11-14.92-2.99l-.65-.67,7.41-29.33h0Z" fill="#eac102"/><path id="eg" d="M40.12,175.81l-3.43-9.73,4.29-1.72,8.58-8.59,5.44,20.61-7.72-2.29h-4l-3.15,1.72h0Z" fill="#eac102"/><path id="eh" d="M197.71,175.63l3.43-9.73-4.29-1.72-8.58-8.59-5.44,20.61,7.72-2.29h4l3.15,1.72h0Z" fill="#fcc917"/><path id="ei" d="M31.82,142.89l-16.58,9.44,5.18,8.93,14.48-5.91,3.49-12.46h-6.58Zm167.75,.1l3.14,12.11,14.83,6.29,5.18-8.96-16.58-9.44s-6.58,0-6.58,0Zm-11.44,12.46l-4.86,20.88,6.58-3.15,4-11.16-5.72-6.58Zm-137.7,.03l-5.75,6.58,4.03,11.16,6.58,3.15-4.86-20.88Z" fill="#f3d328"/><path id="ej" d="M43.85,221.59s-9.98-32.63-17.14-48.05c-3.49-7.51-10.71-21.47-10.71-21.47l14.67-8.47,7.55-1.06c-3.71,9.9-3.45,16.82-3.53,24,7.77-1.34,11.35-7.25,15.52-11.29l4.94,20.82c-7.78-3.46-12.97-1.73-17.98,.35,0,0,3.21,6.29,5.64,8.47,2.78,2.5,5.84,3.93,9.52,4.59,3.48,.62,7.4,.84,10.58-.71,6.7-3.25,10.11-10.35,9.17-9.88,0,0,.67-6.23-1.06-8.47-1.29-1.68-3.95-3.04-5.99-2.47-3.22,.9-4.94,8.12-4.94,8.12,0,0-3.09-6.14-3.88-9.53-.69-2.98-1.72-6.44-.35-9.18,1.02-2.04,3.4-3.47,5.64-3.88,2.97-.55,8.46,2.12,8.46,2.12,0,0-1.64-5.53-2.12-8.47-.24-1.51,.12-3.53,.71-4.94,1.34-3.23,3.46-4.93,4.82-6.78,1.81,1.81,4.04,2.46,6.13,5.26,.91,1.23,1.76,3.09,1.9,4.62,.26,2.96,.03,8.73,.03,8.73,0,0,4.67-3.94,7.68-4.13,2.28-.15,4.93,.65,6.42,2.37,2,2.31,1.85,5.92,1.91,8.98,.07,3.48-1.42,10.19-1.42,10.19,0,0-3.44-6.57-6.78-6.65-2.12-.05-4.36,1.92-5.2,3.87-1.13,2.6,1.06,8.47,1.06,8.47,13.2,10.31,26.85-.26,29.65-10.57v-3.88c-5.52,.76-7.88,1.73-13.4,8.12l-1.76-25.76c5.29,4.79,9.87,6.51,15.16,5.65-.5-7.49-4.47-10.66-10.58-17.21l5.99-1.76h17.94l5.99,1.76c-6.11,6.55-10.08,9.72-10.58,17.21,5.29,.86,9.87-.86,15.16-5.65l-1.76,25.76c-5.52-6.38-7.88-7.36-13.4-8.12v3.88c2.8,10.3,16.45,20.88,29.65,10.57,0,0,2.18-5.87,1.06-8.47-.84-1.95-3.09-3.92-5.2-3.87-3.34,.08-6.78,6.65-6.78,6.65,0,0-1.49-6.72-1.42-10.19,.06-3.06-.09-6.67,1.91-8.98,1.49-1.73,4.15-2.52,6.42-2.37,3.02,.2,7.68,4.13,7.68,4.13,0,0-.23-5.77,.03-8.73,.13-1.52,.98-3.39,1.9-4.62,2.09-2.8,3.41-4.06,5.52-6.17,1.57,1.97,4.09,4.47,5.43,7.69,.58,1.41,.95,3.43,.71,4.94-.48,2.94-2.12,8.47-2.12,8.47,0,0,5.49-2.67,8.46-2.12,2.24,.42,4.62,1.84,5.64,3.88,1.37,2.74,.34,6.19-.35,9.18-.79,3.39-3.88,9.53-3.88,9.53,0,0-1.72-7.22-4.94-8.12-2.04-.57-4.7,.79-5.99,2.47-1.73,2.24-1.06,8.47-1.06,8.47-.94-.47,2.47,6.63,9.17,9.88,3.18,1.55,7.1,1.33,10.58,.71,3.68-.66,6.74-2.09,9.52-4.59,2.43-2.18,5.64-8.47,5.64-8.47-5.01-2.08-10.2-3.81-17.98-.35l4.94-20.82c4.17,4.04,7.74,9.95,15.52,11.29-.07-7.17,.18-14.1-3.53-24l6.85,1.26,15.37,8.26s-3.04,5.86-6.12,12.04c-1.68,3.35-3.37,6.79-4.59,9.43-7.16,15.42-17.14,48.05-17.14,48.05l-.31,.88c-51.09-11.44-101.02-10.11-150.23-.88h0Z" fill="none" stroke="#000" stroke-width=".57"/></g><g id="ek"><g id="el"><path id="em" d="M111.3,183.41h15.66c2.52,0,4.57,2.05,4.57,4.57v5.19c0,2.53-2.05,4.58-4.58,4.58h-15.66c-2.52,0-4.57-2.05-4.57-4.57v-5.19c0-2.53,2.05-4.58,4.58-4.58Z" fill="#1d369e"/><path id="en" d="M110.15,194.83l-.12-6.59,1.76-1.53,15.4-.12,2.12,3.29-.12,4.23h2.23l.12-6.94-2.82-4-18.34,.24-3.41,2.59,.12,7.76,1.18,1.41,1.88-.35h0Z" fill="#4163ef"/><path id="eo" d="M107.45,191.65l4.23,2.82,14.58,.12,1.88-1.88,.12-4.23,2.47-3.76,1.29,2.59-.59,7.65-2.35,3.18-17.98-.35-3.76-2.47-.59-1.53,.71-2.12h0s0,0,0,0Z" fill="#2545cb"/><path id="ep" d="M111.3,183.41h15.66c2.52,0,4.57,2.05,4.57,4.57v5.19c0,2.53-2.05,4.58-4.58,4.58h-15.66c-2.52,0-4.57-2.05-4.57-4.57v-5.19c0-2.53,2.05-4.58,4.58-4.58Z" fill="none" stroke="#000" stroke-width=".57"/><path id="eq" d="M113.06,187.84h4.69c.84,0,1.53,.69,1.53,1.53v.19c0,.84-.69,1.53-1.53,1.53h-4.69c-.84,0-1.53-.69-1.53-1.53v-.19c0-.84,.69-1.53,1.53-1.53Z" fill="#5674f1"/></g><g id="er"><g id="es"><g id="et"><ellipse id="eu" cx="78.22" cy="194.29" rx="11.78" ry="7.19" transform="translate(-20.92 9.79) rotate(-6.32)" fill="#2ca02c"/><path id="ev" d="M66.67,196.74c10,1.74,18.24,1.04,21.26-6.89l2.02,2.33v3.34l-5.06,3.95-6.38,2.13-7.9-1.32-3.95-3.55h0Z" fill="#237f23"/><path id="ew" d="M66.77,194.92c4.44-3.78,10.56-5.7,17.41-6.79l-5.67-1.32-6.48,1.52-3.95,3.34-1.32,3.24h0Z" fill="#32b532"/><ellipse id="ex" cx="78.22" cy="194.29" rx="11.78" ry="7.19" transform="translate(-20.92 9.79) rotate(-6.32)" fill="none" stroke="#000" stroke-width=".63"/><ellipse id="ey" cx="74.66" cy="192.33" rx="3.64" ry="1.87" fill="#6cd66c"/></g><g id="ez"><path id="fa" d="M38.91,208.08l12.03-9.05-18.19-6.95s-2.78,2.66-3.31,4.96c-.73,3.19-.71,5.39,1.32,7.94,1.81,2.28,8.15,3.09,8.15,3.09h0Z" fill="#d71e1e"/><path id="fb" d="M29.12,202.73l2.61,3.49,7.63,1.96,11.55-9.16c-6.72,1.87-11.88,5.57-21.79,3.71Z" fill="#9b1616"/><path id="fc" d="M28.68,198.59c7.12-4.19,14.24-.72,21.35-.22l-17.21-6.32-3.05,3.27-1.09,3.27Z" fill="#e43a3a"/><ellipse id="fd" cx="33.26" cy="198.05" rx="2.83" ry="2.07" fill="#ed7676"/><path id="fe" d="M38.91,208.08l12.03-9.05-18.19-6.95s-2.78,2.66-3.31,4.96c-.73,3.19-.71,5.39,1.32,7.94,1.81,2.28,8.15,3.09,8.15,3.09h0Z" fill="none" stroke="#000" stroke-width=".57"/></g></g><g id="ff"><g id="fg"><ellipse id="fh" cx="160.02" cy="194.29" rx="7.19" ry="11.78" transform="translate(-50.71 331.95) rotate(-83.68)" fill="#2ca02c"/><path id="fi" d="M171.58,196.74c-18.37,3.38-19.28-1.3-23.29-4.56v3.34l5.06,3.95,6.38,2.13,7.9-1.32,3.95-3.55h0Z" fill="#237f23"/><path id="fj" d="M171.48,194.92c-4.44-3.78-14.33-4.1-21.19-5.19l9.44-2.91,6.48,1.52,3.95,3.34,1.32,3.24h0Z" fill="#32b532"/><ellipse id="fk" cx="160.02" cy="194.29" rx="7.19" ry="11.78" transform="translate(-50.71 331.95) rotate(-83.68)" fill="none" stroke="#000" stroke-width=".63"/><ellipse id="fl" cx="156.73" cy="191.88" rx="3.64" ry="1.87" fill="#6cd66c"/></g><g id="fm"><path id="fn" d="M199.33,208.08l-12.03-9.05,18.19-6.95s2.78,2.66,3.31,4.96c.73,3.19,.71,5.39-1.32,7.94-1.81,2.28-8.15,3.09-8.15,3.09h0Z" fill="#d71e1e"/><path id="fo" d="M209.13,202.73l-2.61,3.49-7.63,1.96-11.55-9.16c6.72,1.87,11.88,5.57,21.79,3.71Z" fill="#9b1616"/><path id="fp" d="M209.56,198.59c-7.12-4.19-14.24-.72-21.35-.22l17.21-6.32,3.05,3.27,1.09,3.27Z" fill="#e43a3a"/><ellipse id="fq" cx="204.99" cy="198.05" rx="2.83" ry="2.07" fill="#ed7676"/><path id="fr" d="M199.33,208.08l-12.03-9.05,18.19-6.95s2.78,2.66,3.31,4.96c.73,3.19,.71,5.39-1.32,7.94-1.81,2.28-8.15,3.09-8.15,3.09h0Z" fill="none" stroke="#000" stroke-width=".57"/></g></g></g></g><g id="fs"><ellipse id="ft" cx="119.12" cy="156.43" rx="7.61" ry="7.61" fill="#ccc"/><ellipse id="fu" cx="118.56" cy="155.45" rx="5.9" ry="5.75" fill="#e6e6e6"/><ellipse id="fv" cx="117.53" cy="154.45" rx="4.37" ry="4.39" fill="#fff"/><ellipse id="fw" cx="119.12" cy="156.43" rx="7.61" ry="7.61" fill="none" stroke="#000" stroke-width=".57"/></g><g id="fx"><g id="fy"><ellipse id="fz" cx="206.63" cy="172.82" rx="7.61" ry="7.61" fill="#ccc"/><ellipse id="ga" cx="206.07" cy="171.85" rx="5.9" ry="5.75" fill="#e6e6e6"/><ellipse id="gb" cx="205.04" cy="170.84" rx="4.37" ry="4.39" fill="#fff"/><ellipse id="gc" cx="206.63" cy="172.82" rx="7.61" ry="7.61" fill="none" stroke="#000" stroke-width=".57"/></g><g id="gd"><ellipse id="ge" cx="31.61" cy="172.82" rx="7.61" ry="7.61" fill="#ccc"/><ellipse id="gf" cx="31.05" cy="171.85" rx="5.9" ry="5.75" fill="#e6e6e6"/><ellipse id="gg" cx="30.02" cy="170.84" rx="4.37" ry="4.39" fill="#fff"/><ellipse id="gh" cx="31.61" cy="172.82" rx="7.61" ry="7.61" fill="none" stroke="#000" stroke-width=".57"/></g></g><g id="gi"><ellipse id="gj" cx="119.12" cy="235.33" rx="76.48" ry="13.77" fill="#ccc" stroke="#000" stroke-width=".6"/><ellipse id="gk" cx="119.12" cy="235.33" rx="58.7" ry="6.81" fill="#757369"/><g id="gl"><g id="gm"><path id="gn" d="M45.89,237.42c50.63-11.12,99.4-10.05,147.18,.05,8.23,2.71,10.09-16.09,2.05-20.09-49.82-14.79-138.25-6.3-152.18,0-4.19-.75-9.96,19.52,2.95,20.04h0Z" fill="#fff"/><path id="go" d="M45.89,237.42c50.63-11.12,99.4-10.05,147.18,.05,2.73,.9,5.56-4.71,6.76-7.22-68.42-17.04-109.11-12.48-161.93,0-.47-1.83-.73,1.12,1.48,3.7,1.52,1.77,5.34,3.2,6.5,3.47h0Z" fill="#e6e6e6"/><path id="gp" d="M45.89,237.42c50.63-11.12,99.4-10.05,147.18,.05,8.23,2.71,10.09-16.09,2.05-20.09-49.82-14.79-138.25-6.3-152.18,0-4.19-.75-9.96,19.52,2.95,20.04h0Z" fill="none" stroke="#000" stroke-width=".59"/></g><g id="gq"><path id="gr" d="M112.84,214.85c-2.23,.11-4.79,.84-4.79,.84l6.37,1.61s-1.85,.43-3.25,.93c-1,.35-3.74,1.83-3.74,1.83l7.3,.06s-2.12,1.02-2.97,1.79c-.65,.59-1.55,2.14-1.55,2.14,0,0,6.48-2.66,9.89-3.31,3.51-.67,10.7-.59,10.7-.59l-4.02-2.01s-3.85-.6-7.11-1.61c-1.86-.57-4.04-1.59-5.91-1.67-.3-.01-.61-.02-.93,0Zm-29.34,1.39c-.24,0-.48,.01-.71,.03-2.36,.2-5.6,1.55-5.6,1.55l6.56,.77s-1.8,.69-3.12,1.36c-.95,.48-3.46,2.29-3.46,2.29l7.24-.87s-1.98,1.25-2.72,2.14c-.56,.67-1.24,2.32-1.24,2.32,0,0,6.07-3.46,9.37-4.55,3.4-1.12,10.54-1.98,10.54-1.98l-4.24-1.49s-3.9-.07-7.27-.65c-1.68-.29-3.64-.89-5.35-.93h0Zm59.99,.28c-2.23-.03-4.85,.56-4.85,.56l6.28,1.98s-1.88,.33-3.31,.74c-1.02,.29-3.83,1.61-3.83,1.61l7.27,.5s-2.17,.85-3.06,1.58c-.68,.55-1.67,2.04-1.67,2.04,0,0,6.63-2.25,10.08-2.69,3.55-.46,10.73,.06,10.73,.06l-3.9-2.26s-3.82-.84-7.02-2.04c-1.83-.69-3.93-1.82-5.78-2.01-.29-.03-.61-.06-.93-.06Zm-89.52,3c-.51,0-1,.03-1.45,.12-2.32,.47-5.38,2.2-5.38,2.2h6.59s-1.7,.88-2.94,1.7c-.88,.59-3.15,2.69-3.15,2.69l7.08-1.7s-1.81,1.48-2.44,2.44c-.48,.73-.99,2.44-.99,2.44,0,0,5.63-4.17,8.78-5.63,3.24-1.51,10.27-3.16,10.27-3.16l-4.42-.99s-3.86,.37-7.27,.19c-1.46-.08-3.15-.34-4.67-.31Zm117.44,.59c-1.16,.03-2.04,.12-2.04,.12l6.06,2.63s-1.91,.14-3.37,.4c-1.04,.18-3.99,1.18-3.99,1.18l7.17,1.27s-2.25,.64-3.22,1.27c-.73,.48-1.86,1.86-1.86,1.86,0,0,6.82-1.59,10.3-1.67,3.57-.09,10.67,1.18,10.67,1.18l-3.65-2.63s-3.72-1.23-6.77-2.75c-1.75-.87-3.71-2.21-5.53-2.6-1.16-.25-2.61-.28-3.77-.25Z" fill="#333"/></g></g></g>
  </svg>
</svg>
